<?xml version="1.0" encoding="iso-8859-1"?>
<!-- Generator: Adobe Illustrator 21.0.0, SVG Export Plug-In . SVG Version: 6.00 Build 0)  -->
<svg version="1.1" id="Layer_1" xmlns="http://www.w3.org/2000/svg" xmlns:xlink="http://www.w3.org/1999/xlink" x="0px" y="0px"
	 viewBox="0 0 100 99.313" style="enable-background:new 0 0 100 99.313;" xml:space="preserve">
<path style="fill:#231F20;" d="M37.464,86.012c-0.041,0-0.081-0.001-0.121-0.005c-0.293-0.024-0.58-0.137-0.82-0.34
	c-0.001-0.001-0.015-0.001-0.003-0.003c-0.016-0.014-0.031-0.027-0.046-0.042l-0.116-0.107c-0.044-0.041-0.084-0.083-0.122-0.127
	l-7.411-7.37L0.415,48.998c-0.562-0.575-0.553-1.497,0.022-2.059l7.674-7.517c0.276-0.271,0.691-0.42,1.034-0.416
	c0.386,0.004,0.755,0.161,1.026,0.438L37.347,67.2l52.389-53.807c0.558-0.573,1.473-0.589,2.052-0.036l7.763,7.437
	c0.28,0.269,0.442,0.638,0.448,1.026c0.007,0.388-0.142,0.763-0.413,1.042L45.902,77.983l0,0l-7.393,7.59
	c-0.018,0.018-0.036,0.036-0.055,0.053c0.001,0.001-0.002,0.002-0.003,0.003s-0.002,0.002-0.004,0.003
	c-0.001,0.001-0.002,0.002-0.003,0.003l0,0c-0.081,0.073-0.168,0.136-0.259,0.188c-0.002,0.001-0.003,0.001-0.004,0.002
	c0.007,0.001-0.003,0.001-0.004,0.002c0.001,0-0.001,0.001-0.004,0.002c0,0.001-0.003,0.001-0.004,0.002
	c-0.008,0.001-0.003,0.001-0.005,0.002c0,0-0.002,0.001-0.004,0.002c0.001,0.001-0.002,0.001-0.004,0.002
	c0.002,0.001-0.002,0.002-0.004,0.002c-0.001,0-0.001,0.001-0.004,0.002c-0.004,0.001-0.004,0.001-0.004,0.002
	c-0.001,0,0.005,0-0.005,0.002c0,0-0.003,0.001-0.004,0.002c-0.001,0-0.009,0-0.004,0.002c-0.002,0.001-0.003,0.002-0.004,0.002
	c-0.001,0.001-0.008,0-0.004,0.002C37.918,85.959,37.691,86.012,37.464,86.012z M3.514,47.999l27.378,27.967l6.556,6.52l6.367-6.536
	l0,0l52.659-54.069l-5.659-5.421L38.393,70.3c-0.275,0.282-0.658,0.438-1.044,0.44c-0.392,0-0.767-0.158-1.041-0.438L9.108,42.52
	L3.514,47.999z M44.857,76.965h0.009H44.857z"/>
</svg>
